<svg width="168" height="161" viewBox="0 0 168 161" fill="none" xmlns="http://www.w3.org/2000/svg">
<path d="M68.5508 11.0557C73.3404 -3.68526 94.195 -3.68526 98.9846 11.0557L107.791 38.1581C109.933 44.7504 116.076 49.2138 123.008 49.2138H151.505C167.004 49.2138 173.449 69.0477 160.909 78.1581L137.855 94.9083C132.247 98.9826 129.9 106.204 132.042 112.797L140.848 139.899C145.638 154.64 128.766 166.898 116.227 157.788L93.1723 141.038C87.5645 136.963 79.9709 136.963 74.3631 141.038L51.3085 157.788C38.7691 166.898 21.8974 154.64 26.687 139.899L35.4931 112.797C37.6351 106.204 35.2886 98.9826 29.6808 94.9083L6.62611 78.1581C-5.91331 69.0477 0.5311 49.2138 16.0307 49.2138H44.5278C51.4594 49.2138 57.6027 44.7504 59.7447 38.1581L68.5508 11.0557Z" fill="#b7ff30"/>
</svg>
